<svg id="_x30_1" enable-background="new 0 0 62 62" height="512" viewBox="0 0 62 62" width="512" xmlns="http://www.w3.org/2000/svg"><g><path d="m26.895 38.447-1.789-.895c-.447.893-1.344 1.448-2.342 1.448h-4.764v2h4.764c1.76 0 3.343-.978 4.131-2.553z"/><path d="m13 24c-1.654 0-3 1.346-3 3s1.346 3 3 3 3-1.346 3-3-1.346-3-3-3zm0 4c-.551 0-1-.449-1-1s.449-1 1-1 1 .449 1 1-.449 1-1 1z"/><path d="m29 30c1.654 0 3-1.346 3-3s-1.346-3-3-3-3 1.346-3 3 1.346 3 3 3zm0-4c.551 0 1 .449 1 1s-.449 1-1 1-1-.449-1-1 .449-1 1-1z"/><path d="m49.823 49.692c.117-.351.177-.716.177-1.087 0-1.375-.817-2.614-2.081-3.156l-5.107-2.189c-.402-.173-.828-.26-1.265-.26-1.344 0-2.556.849-3.016 2.112l-2.552 7.018c-.264-.081-.542-.13-.833-.13-1.087 0-2.066.604-2.553 1.578l-.116.233-.577-.165c-.461-3.388-2.615-6.217-5.563-7.644 5.64-2.158 9.663-7.612 9.663-14.002v-1c2.206 0 4-1.794 4-4 0-.557-.116-1.087-.323-1.57l1.052-1.403c.05-.067.083-.145.131-.214.363.111.741.187 1.14.187 2.206 0 4-1.794 4-4v-2.465l2.074-1.383c2.458-1.638 3.926-4.381 3.926-7.335 0-4.862-3.955-8.817-8.816-8.817h-2.367c-2.982 0-5.617 1.492-7.214 3.764-1.44-1.126-3.228-1.764-5.075-1.764h-1.225l-.252-.168c-3.596-2.397-8.506-2.397-12.102 0l-.252.168h-1.225c-2.928 0-5.581 1.518-7.064 4h-.458c-3.281 0-5.95 2.669-5.95 5.95 0 1.519.565 2.951 1.596 4.056-1.032 1.162-1.596 2.643-1.596 4.21 0 1.365.451 2.718 1.27 3.811l1.052 1.404c-.206.482-.322 1.012-.322 1.569 0 2.206 1.794 4 4 4v1c0 6.668 4.376 12.327 10.405 14.273-1.459 1.122-2.405 2.879-2.405 4.857 0 5.994 4.876 10.87 10.87 10.87h13.13 5.559c1.274 0 2.4-.802 2.824-2h11.617v-2h-10.946l.667-2h10.279v-2h-9.613zm-20.07 3.34-2.944-.841-.785-2.745c-.184-.646-.472-1.242-.84-1.776 2.238.976 3.955 2.943 4.569 5.362zm-7.068-29.032h-3.37c-1.126-2.361-3.53-4-6.315-4-1.958 0-3.728.81-5 2.11v-1.948c0-.862.549-1.625 1.368-1.897l2.709-.903c1.067.414 2.21.638 3.389.638 1.589 0 3.128-.422 4.51-1.185 1.184.758 2.578 1.185 4.051 1.185 1.488 0 2.93-.437 4.169-1.262l.875-.584 3.823 1.912c.682.34 1.106 1.026 1.106 1.788v2.256c-1.272-1.3-3.042-2.11-5-2.11-2.785 0-5.189 1.639-6.315 4zm-4.685 3c0 2.757-2.243 5-5 5s-5-2.243-5-5 2.243-5 5-5 5 2.243 5 5zm11-5c2.757 0 5 2.243 5 5s-2.243 5-5 5-5-2.243-5-5 2.243-5 5-5zm7 7v-4c1.103 0 2 .897 2 2s-.897 2-2 2zm6-7c-1.103 0-2-.897-2-2v-2h4v2c0 1.103-.897 2-2 2zm-1.184-20h2.367c3.759 0 6.817 3.058 6.817 6.817 0 2.284-1.135 4.404-3.036 5.671l-1.964 1.31v-5.384c0-.635.258-1.258.707-1.707l-1.414-1.414c-.834.833-1.293 1.942-1.293 3.121v5.586h-2v-5.586c0-1.179-.459-2.288-1.293-3.121l-1.414 1.414c.449.449.707 1.072.707 1.707v5.384l-1.964-1.31c-1.901-1.267-3.036-3.387-3.036-5.672 0-3.758 3.058-6.816 6.816-6.816zm-37.659 12.743c-.746-.746-1.157-1.738-1.157-2.793 0-2.178 1.772-3.95 3.95-3.95h1.668l.276-.553c1.064-2.126 3.201-3.447 5.578-3.447h1.831l.756-.504c2.937-1.957 6.946-1.957 9.883 0l.755.504h1.831c1.513 0 2.978.557 4.109 1.545-.407 1.013-.637 2.115-.637 3.272 0 2.955 1.468 5.697 3.926 7.335l2.074 1.383v2.465c0 1.089.44 2.075 1.148 2.797-.007.009-.011.02-.018.03l-.739.986c-.669-.504-1.491-.813-2.391-.813v-3.146c0-1.524-.847-2.896-2.211-3.578l-4.861-2.43-1.841 1.228c-.909.606-1.967.926-3.06.926-2.103 0-3.994-1.168-4.934-3.05l-.199-.398-1.788.896.199.397c.286.571.644 1.085 1.047 1.553-.909.388-1.885.602-2.886.602-1.968 0-3.818-.767-5.21-2.158l-.549-.549-1.414 1.414.549.549c.282.282.584.537.895.778l-1.001.334c-1.637.545-2.736 2.07-2.736 3.794v2.838c-.9 0-1.722.309-2.39.813l-.74-.986c-.561-.748-.87-1.676-.87-2.611 0-1.162.453-2.255 1.274-3.077l1.14-1.139zm.843 12.257c0-1.103.897-2 2-2v4c-1.103 0-2-.897-2-2zm4 5v-.11c1.272 1.3 3.042 2.11 5 2.11 3.86 0 7-3.14 7-7 0-.34-.033-.672-.08-1h2.16c-.047.328-.08.66-.08 1 0 3.86 3.14 7 7 7 1.958 0 3.728-.81 5-2.11v.11c0 7.168-5.832 13-13 13s-13-5.832-13-13zm8 19.13c0-2.277 1.853-4.13 4.13-4.13 1.834 0 3.467 1.232 3.971 2.996l.748 2.618-6.302 4.727c-1.573-1.602-2.547-3.794-2.547-6.211zm8.87 8.87c-1.732 0-3.345-.507-4.712-1.369l6.044-4.533 7.321 2.091.858-1.717c.146-.291.439-.472.765-.472.471 0 .854.383.854.854v1.146h2c1.103 0 2 .897 2 2s-.897 2-2 2zm19.637-.684c-.136.409-.517.684-.948.684h-2.115c.344-.591.556-1.268.556-2 0-2.206-1.794-4-4-4h-.13c-.06-.192-.147-.371-.244-.543l2.786-7.661c.229-.629.996-.962 1.611-.698l5.108 2.189c.528.226.869.744.869 1.318 0 .155-.025.307-.074.453z"/><path d="m42.5 46.307h2.001v5.385h-2.001z" transform="matrix(.371 -.929 .929 .371 -18.151 71.191)"/><path d="m41.5 49.307h2.001v5.385h-2.001z" transform="matrix(.371 -.929 .929 .371 -21.565 72.148)"/><path d="m57 27c-2.757 0-5 2.243-5 5v11.734c0 .348.091.691.264.992l4.736 8.29 4.736-8.288c.173-.302.264-.645.264-.994v-11.734c0-2.757-2.243-5-5-5zm0 2c1.654 0 3 1.346 3 3h-6c0-1.654 1.346-3 3-3zm-3 13v-8h2v8zm.152 2h5.696l-.571 1h-4.554zm3.848-2v-8h2v8zm-2.134 5h2.268l-1.134 1.984z"/><path d="m50 20h2v2h-2z"/><path d="m54 20h2v2h-2z"/><path d="m58 20h2v2h-2z"/></g></svg>