<svg id="_x30_1" enable-background="new 0 0 62 62.557" height="512" viewBox="0 0 62 62.557" width="512" xmlns="http://www.w3.org/2000/svg"><g><path d="m24.895 36.004-1.789-.895c-.446.893-1.344 1.447-2.342 1.447h-4.764v2h4.764c1.759.001 3.342-.978 4.131-2.552z"/><path d="m9 27.793c.381-.763 1.147-1.236 2-1.236s1.619.474 2 1.236l.105.211 1.789-.895-.105-.211c-.722-1.444-2.174-2.342-3.789-2.342s-3.067.897-3.789 2.342l-.105.211 1.789.895z"/><path d="m27 24.557c-1.615 0-3.067.897-3.789 2.342l-.105.211 1.789.895.105-.212c.381-.763 1.147-1.236 2-1.236s1.619.474 2 1.236l.105.211 1.789-.895-.105-.211c-.722-1.444-2.174-2.341-3.789-2.341z"/><path d="m44 56.557h-8.093c-.432-2.331-2.345-4.148-4.787-4.394l-1.232-.123c-.507-3.669-2.815-6.738-5.985-8.323 5.867-2.037 10.097-7.607 10.097-14.16v-1c2.206 0 4-1.794 4-4 0-1.125-.47-2.139-1.22-2.866l.006-.01c.794-1.193 1.214-2.579 1.214-4.01 0-2.211-1.037-4.32-2.773-5.682.49-1.171.773-2.44.773-3.757v-1.856l-6.209 1.035-1.067-5.334-6 3-1.016-5.077-6.708 3.833v-2.664l-1.316.439c-3.906 1.301-7.043 4.343-8.476 8.189l-.448.179c-2.892 1.156-4.76 3.916-4.76 7.03 0 1.169.276 2.339.799 3.386l.583 1.165c-.84.733-1.382 1.799-1.382 3 0 2.206 1.794 4 4 4v1c0 6.621 4.316 12.243 10.278 14.227-1.383 1.07-2.278 2.741-2.278 4.621v.218c0 .745.141 1.476.418 2.172 2.372 5.93 8.031 9.762 14.419 9.762h1.163c0 1.103.897 2 2 2h14c1.103 0 2-.897 2-2v-2c0-1.103-.897-2-2-2zm-16.174-4.723-2.148-.215-2.483-5.589c-.091-.204-.201-.394-.313-.584 2.518 1.209 4.393 3.553 4.944 6.388zm3.174-21.277h-8c-.552 0-1-.448-1-1v-6c0-.552.448-1 1-1h8c.552 0 1 .448 1 1v6c0 .551-.448 1-1 1zm-11-7v1h-2v-1c0-1.654-1.346-3-3-3h-8c-.321 0-.625.064-.915.158.403-2.355 2.446-4.158 4.915-4.158h16c2.468 0 4.512 1.802 4.915 4.158-.29-.094-.594-.158-.915-.158h-8c-1.654 0-3 1.345-3 3zm-14 6v-6c0-.552.448-1 1-1h8c.552 0 1 .448 1 1v6c0 .552-.448 1-1 1h-8c-.552 0-1-.449-1-1zm28-3v-3-1c1.103 0 2 .897 2 2s-.897 2-2 2zm2-8.886c0 1.035-.304 2.038-.878 2.9l-.091.137c-.331-.089-.672-.151-1.031-.151h-.08c-.24-1.666-1.066-3.141-2.265-4.213 1.03-.69 1.906-1.562 2.598-2.564 1.098.984 1.747 2.404 1.747 3.891zm-23-13.635v3.244l7.292-4.167.984 4.923 6-3 .933 4.666 5.774-.962c-.178 2.72-1.786 5.145-4.212 6.391-.851-.368-1.787-.575-2.771-.575h-16c-.365 0-.721.037-1.071.091l-2.809-4.213c1.066-2.807 3.185-5.113 5.88-6.398zm-10.412 15.461c-.385-.769-.588-1.631-.588-2.491 0-2.292 1.375-4.322 3.502-5.173l.116-.047 2.323 3.484c-2.042.998-3.525 2.956-3.861 5.286h-.08c-.287 0-.566.033-.836.091zm-.588 5.06c0-1.103.897-2 2-2v1 3c-1.103 0-2-.898-2-2zm4.343 7.922c.212.048.43.077.657.077h8c1.654 0 3-1.346 3-3v-3h2v3c0 1.654 1.346 3 3 3h8c.226 0 .445-.03.657-.077-1.332 5.764-6.495 10.078-12.657 10.078s-11.325-4.314-12.657-10.078zm7.932 17.575c-.182-.459-.275-.941-.275-1.431v-.218c0-2.122 1.727-3.849 3.849-3.849 1.52 0 2.9.897 3.518 2.286l2.314 5.206-6.201 2.756c-1.363-1.307-2.468-2.91-3.205-4.75zm13.725 8.503h-1.163c-2.794 0-5.428-.843-7.62-2.335l5.948-2.643 5.756.575c1.408.141 2.525 1.115 2.918 2.403h-3.839c-1.103 0-2 .897-2 2zm2 2v-2h14l.002 2z"/><path d="m32.293 40.85-3.707 3.707 3.707 3.707 1.414-1.414-2.293-2.293 2.293-2.293z"/><path d="m41.707 48.264 3.707-3.707-3.707-3.707-1.414 1.414 2.293 2.293-2.293 2.293z"/><path d="m31.615 43.557h10.77v2h-10.77z" transform="matrix(.371 -.929 .929 .371 -18.111 62.362)"/><path d="m60 30.557c1.103 0 2-.897 2-2v-22c0-1.103-.897-2-2-2h-18c-1.103 0-2 .897-2 2v22c0 1.103.897 2 2 2h9.041l-5.923 19.462c-.078.257-.118.526-.118.796 0 1.512 1.229 2.741 2.741 2.741h.969c1.214 0 2.269-.78 2.623-1.943l1.843-6.057h3.641l3.106 10.868c.013.044.023.088.032.132h-9.955c-1.103 0-2 .897-2 2v2c0 1.103.897 2 2 2h10c1.103 0 2-.897 2-2v-3.58c0-.369-.052-.738-.153-1.099l-5.72-20.017 1.614-5.304h2.259zm0 30h-10v-2h10zm-2.115-32c-.326-1.15-1.373-2-2.627-2h-.968c-.099 0-.194.013-.29.023v-14.023h6v16zm2.115-22v4h-10v-2h-2v2h-2v-2h-2v2h-2v-4zm-18 22v-16h10v15.243c-.139.214-.255.446-.333.701l-.017.057h-9.65zm7.42 22.473c-.097.315-.382.526-.71.526h-.969c-.409 0-.741-.332-.741-.741 0-.073.011-.146.032-.216l6.548-21.517c.097-.315.382-.526.71-.526h.969c.409 0 .741.332.741.741 0 .073-.011.146-.032.216zm6.826-7.473h-2.461l1.269-4.17z"/><path d="m56 14.557h2v2h-2z"/><path d="m56 18.557h2v2h-2z"/><path d="m44 14.557h6v2h-6z"/><path d="m44 18.557h6v2h-6z"/><path d="m44 22.557h6v2h-6z"/><path d="m56 22.557h2v2h-2z"/></g></svg>