<svg id="_x30_1" enable-background="new 0 0 62 62" height="512" viewBox="0 0 62 62" width="512" xmlns="http://www.w3.org/2000/svg"><g><path d="m12.192 34.232c.557 3.342 3.42 5.768 6.808 5.768s6.251-2.426 6.808-5.768l.373-2.232h-14.362zm11.626-.232c-.434 2.323-2.445 4-4.818 4s-4.385-1.676-4.818-4z"/><path d="m25 22c-1.654 0-3 1.346-3 3s1.346 3 3 3 3-1.346 3-3-1.346-3-3-3zm0 4c-.551 0-1-.448-1-1s.449-1 1-1 1 .448 1 1-.449 1-1 1z"/><path d="m16 25c0-1.654-1.346-3-3-3s-3 1.346-3 3 1.346 3 3 3 3-1.346 3-3zm-4 0c0-.552.449-1 1-1s1 .448 1 1-.449 1-1 1-1-.448-1-1z"/><path d="m62 13c0-7.168-5.832-13-13-13-6.264 0-11.506 4.454-12.729 10.36-2.209-3.796-6.311-6.36-11.01-6.36h-9.789c-2.772 0-5.547-.655-8.025-1.895l-.79-.395-3.458 5.188c-.784 1.177-1.199 2.547-1.199 3.961 0 .815.149 1.594.401 2.325l-.307.307c-1.33 1.33-2.094 3.174-2.094 5.057 0 1.104.261 2.21.755 3.198l.627 1.254c-.84.734-1.382 1.8-1.382 3 0 2.206 1.794 4 4 4h.051c.414 6.233 4.637 11.435 10.368 13.278-1.468 1.128-2.419 2.895-2.419 4.884v13.838h12v-.008c.069.001.138.008.208.008h9.792c1.103 0 2-.897 2-2h8c1.103 0 2-.897 2-2v-12c0-1.103-.897-2-2-2h-8c-1.103 0-2 .897-2 2v6h-3.135c-.686-4.007-3.295-7.273-6.819-8.892 5.492-1.97 9.501-7.047 9.904-13.108h.05c2.206 0 4-1.794 4-4 0-1.25-.588-2.353-1.488-3.087l.576-1.442c.268-.67.468-1.359.618-2.057.622 1.09 1.395 2.081 2.293 2.945v17.641c0 1.103.897 2 2 2h16c1.103 0 2-.897 2-2v-20.104c1.261-2.001 2.001-4.361 2.001-6.896zm-26 33h8v12h-2.537c.342-.589.537-1.272.537-2 0-2.206-1.794-4-4-4h-2zm0 8h2c1.103 0 2 .897 2 2s-.897 2-2 2h-2zm2-41c0-1.041.155-2.045.426-3h5.831c-.168.991-.257 1.996-.257 3s.089 2.009.258 3h-5.831c-.272-.955-.427-1.959-.427-3zm8 0c0-1.007.122-2.01.312-3h5.376c.19.99.312 1.993.312 3s-.122 2.01-.312 3h-5.376c-.19-.99-.312-1.993-.312-3zm3-9.764 1.316 2.633c.343.686.617 1.403.857 2.131h-4.346c.24-.728.514-1.445.857-2.131zm11 9.764c0 1.041-.155 2.045-.426 3h-5.831c.168-.991.257-1.996.257-3s-.089-2.009-.258-3h5.831c.272.955.427 1.959.427 3zm-8.827 5c-.24.728-.514 1.445-.857 2.131l-1.316 2.633-1.316-2.633c-.343-.686-.617-1.402-.857-2.131zm.932 3.025c.484-.969.876-1.984 1.178-3.025h5.502c-1.578 3.076-4.559 5.307-8.096 5.856zm6.681-13.025h-5.502c-.302-1.041-.694-2.056-1.178-3.025l-1.416-2.831c3.537.549 6.518 2.78 8.096 5.856zm-11.476-5.856-1.415 2.831c-.485.969-.877 1.984-1.178 3.025h-5.502c1.577-3.076 4.558-5.307 8.095-5.856zm-45.31 23.856c0-1.103.897-2 2-2v4c-1.103 0-2-.897-2-2zm2-6.395v2.395c-.287 0-.566.033-.836.091l-.62-1.24c-.356-.711-.544-1.507-.544-2.303 0-1.287.508-2.538 1.379-3.483.491.671 1.093 1.256 1.783 1.721-.738.742-1.162 1.75-1.162 2.819zm10 40.395v-4.918c.808 2.024 2.172 3.715 3.885 4.918zm1.669-6.154-1.456-4.367c-.141-.425-.213-.869-.213-1.319 0-2.294 1.867-4.16 4.161-4.16 1.851 0 3.453 1.191 3.985 2.965l1.725 5.751-1.578 1.578 1.414 1.414 1.707-1.708h4.586v6h-5.792c-3.88 0-7.312-2.474-8.539-6.154zm18.331 6.154h-2v-6h2zm-5.17-8h-3.086l-1.683-5.609c-.147-.488-.364-.935-.612-1.358 2.709 1.334 4.731 3.862 5.381 6.967zm3.17-23c0 7.168-5.832 13-13 13s-13-5.832-13-13v-9.395c0-.67.333-1.292.89-1.664l.313-.208c.617.174 1.266.267 1.938.267h20.859c1.103 0 2 .897 2 2zm2-1v-4c1.103 0 2 .897 2 2s-.897 2-2 2zm0-6v-2c0-2.206-1.794-4-4-4h-20.859c-2.835 0-5.141-2.306-5.141-5.141 0-1.019.298-2.004.863-2.852l2.49-3.735c2.545 1.133 5.334 1.728 8.119 1.728h9.789c5.922 0 10.739 4.817 10.739 10.739 0 1.373-.258 2.714-.769 3.988l-.537 1.343c-.226-.04-.456-.07-.694-.07zm5.214-4h5.502c.302 1.041.694 2.056 1.178 3.025l1.415 2.831c-3.536-.549-6.517-2.78-8.095-5.856zm2.786 22v-16.063c2.023 1.299 4.422 2.063 7 2.063 3.493 0 6.662-1.392 9-3.641v17.641z"/><path d="m44 28h4v2h-4z"/><path d="m44 32h4v2h-4z"/><path d="m50 28h6v2h-6z"/><path d="m50 32h6v2h-6z"/><path d="m44 36h4v2h-4z"/><path d="m50 36h6v2h-6z"/><path d="m38 48h4v2h-4z"/><path d="m48 48h2v2h-2z"/><path d="m52 48h2v2h-2z"/><path d="m48 52h8v2h-8z"/><path d="m48 56h8v2h-8z"/></g></svg>