<svg id="Capa_1" enable-background="new 0 0 512 512" height="512" viewBox="0 0 512 512" width="512" xmlns="http://www.w3.org/2000/svg"><g><path d="m512 261.775-82.322-25.813-49.988-70.315-49.98 70.304-47.267 14.735-26.803-37.703-26.673 37.519-46.676-14.551-49.98-70.304-49.988 70.315-82.323 25.813 51.427 69.27-.89 86.269 81.773-27.504 42.182 14.189-.626 60.651 81.773-27.504 81.772 27.506-.623-60.411 42.901-14.431 81.773 27.504-.89-86.269zm-430.811 113.351.557-53.932-32.15-43.305 51.465-16.138 31.251-43.958 31.259 43.969 46.979 14.646-4.897 6.889-82.323 25.813 45.321 61.044-36.339-12.223zm174.451 30.141-51.122 17.195.557-53.932-32.151-43.305 51.466-16.138 31.251-43.958 31.25 43.958 51.465 16.138-32.15 43.305.557 53.932zm124.05-47.335-37.301 12.547 45.56-61.368-82.322-25.813-4.766-6.705 47.57-14.83 31.259-43.969 31.251 43.958 51.465 16.138-32.15 43.305.557 53.932z"/><path d="m240.532 47.349h30.215v81.829h-30.215z"/><path d="m164.2 103.982h30.214v49.395h-30.214z" transform="matrix(.707 -.707 .707 .707 -38.472 164.479)"/><path d="m307.273 113.572h49.395v30.214h-49.395z" transform="matrix(.707 -.707 .707 .707 6.242 272.428)"/></g></svg>